<?xml version="1.0" encoding="UTF-8" standalone="no"?>
<!DOCTYPE svg PUBLIC "-//W3C//DTD SVG 1.1//EN" "http://www.w3.org/Graphics/SVG/1.1/DTD/svg11.dtd">
<svg xmlns="http://www.w3.org/2000/svg" version="1.1" viewBox="0 0 207 223">
<path fill="#000000" d="
  M 163.80 95.24
  A 1.65 1.45 -10.1 0 0 165.51 96.28
  Q 171.83 95.64 178.20 96.32
  Q 180.51 96.56 180.50 99.01
  L 180.37 122.44
  Q 180.36 124.62 178.00 124.68
  L 164.50 125.03
  A 0.74 0.69 5.0 0 0 163.81 125.57
  Q 162.50 131.37 159.40 136.45
  A 1.07 0.95 39.5 0 0 159.59 137.69
  Q 163.99 142.14 168.57 146.68
  Q 170.52 148.61 168.13 151.14
  Q 160.74 158.99 153.03 166.54
  C 150.98 168.55 149.16 167.90 147.20 166.10
  Q 143.29 162.50 139.31 158.38
  A 1.33 1.15 52.6 0 0 137.82 158.07
  Q 132.50 160.98 126.69 162.67
  A 0.76 0.47 86.3 0 0 126.33 163.35
  C 126.24 167.29 126.09 171.29 126.34 175.16
  Q 126.58 178.80 123.09 179.12
  Q 114.41 179.91 101.42 178.72
  A 1.12 1.09 -62.9 0 0 100.56 179.01
  C 80.84 197.17 51.88 178.77 36.88 164.60
  C 27.22 155.47 26.07 137.83 28.06 125.51
  C 28.73 121.34 28.19 117.43 28.32 113.26
  Q 28.69 101.36 38.31 91.59
  A 1.63 1.62 60.3 0 0 38.72 90.08
  C 36.28 80.08 39.10 70.39 47.21 64.06
  Q 48.38 63.15 49.44 62.11
  A 1.22 1.18 69.2 0 0 49.80 61.27
  C 50.06 53.15 54.51 48.36 60.80 43.87
  Q 62.35 42.77 63.45 40.97
  C 74.98 22.08 97.27 25.10 113.34 35.16
  Q 116.10 36.89 115.46 40.26
  A 1.27 1.26 -84.9 0 0 116.71 41.76
  C 120.31 41.73 126.68 40.51 126.63 46.26
  Q 126.59 51.87 126.29 57.48
  A 0.83 0.81 -77.3 0 0 126.78 58.28
  L 138.22 63.06
  A 0.95 0.79 32.0 0 0 139.19 62.93
  L 147.93 54.17
  Q 150.34 51.76 152.66 54.10
  L 168.44 70.07
  Q 170.46 72.11 168.42 74.16
  L 159.94 82.68
  A 2.10 1.99 53.3 0 0 159.65 85.14
  Q 162.34 89.93 163.80 95.24
  Z
  M 67.07 48.61
  Q 60.30 51.75 57.18 58.45
  Q 56.15 60.65 58.25 61.45
  Q 63.94 63.62 70.00 63.23
  Q 72.72 63.05 72.52 60.26
  C 72.25 56.62 72.28 50.20 78.33 53.75
  A 1.43 1.40 -85.8 0 1 78.94 54.47
  Q 80.33 58.32 79.61 62.17
  C 77.42 73.86 62.51 70.62 55.20 68.11
  A 1.65 1.36 41.3 0 0 54.25 68.08
  C 48.55 69.88 45.38 77.37 45.18 82.74
  C 45.04 86.32 46.71 90.47 46.76 94.73
  A 0.45 0.44 -2.9 0 0 47.26 95.17
  C 54.14 94.41 61.86 95.07 65.88 100.85
  A 1.18 1.17 -32.1 0 0 67.43 101.20
  Q 76.27 96.23 86.44 96.03
  C 90.98 95.93 92.04 103.03 86.49 103.16
  Q 71.01 103.52 61.22 115.99
  Q 59.46 118.23 54.08 129.20
  C 52.43 132.58 50.02 133.32 47.31 130.41
  A 1.99 1.93 -57.1 0 1 46.92 128.44
  Q 51.09 116.45 59.45 106.98
  Q 61.34 104.84 58.93 103.58
  C 54.27 101.12 48.91 101.96 43.97 102.96
  A 1.36 0.50 -19.1 0 1 43.07 102.94
  Q 41.94 102.32 41.26 101.24
  A 1.25 1.14 44.2 0 0 39.20 101.18
  Q 34.44 109.85 35.71 119.52
  Q 36.06 122.17 35.67 124.48
  C 33.97 134.65 33.77 151.29 41.47 159.01
  C 51.27 168.82 74.38 184.79 90.03 177.67
  C 99.10 173.54 104.91 161.70 107.24 152.13
  Q 108.59 146.59 108.60 135.41
  C 108.63 103.92 109.23 72.27 108.42 40.79
  A 0.75 0.74 -75.3 0 0 108.06 40.17
  C 94.27 31.93 75.69 30.57 67.64 47.74
  A 1.29 0.24 -67.3 0 1 67.07 48.61
  Z
  M 173.07 103.24
  L 161.24 103.28
  Q 158.59 103.29 158.03 100.95
  Q 155.94 92.20 151.08 84.61
  Q 149.89 82.75 151.59 81.08
  L 160.28 72.53
  A 0.42 0.40 -45.0 0 0 160.30 71.95
  L 150.81 62.44
  A 0.80 0.79 -44.7 0 0 149.68 62.44
  L 141.18 70.94
  Q 139.80 72.32 138.03 71.24
  Q 130.12 66.36 121.07 64.20
  Q 119.26 63.78 119.26 62.00
  L 119.25 50.00
  A 0.84 0.79 11.4 0 0 118.72 49.25
  Q 115.46 47.91 115.47 51.22
  Q 115.52 65.86 115.50 80.48
  A 1.13 1.12 5.1 0 0 116.44 81.60
  C 150.48 87.50 149.87 134.85 115.83 139.36
  A 0.57 0.57 -6.2 0 0 115.33 139.98
  C 116.19 150.85 112.19 161.44 107.26 170.90
  A 0.68 0.66 -75.5 0 0 107.82 171.89
  L 118.25 172.02
  A 0.96 0.81 -89.7 0 0 119.07 171.06
  L 119.06 159.32
  Q 119.06 157.22 121.00 156.73
  Q 129.84 154.53 137.70 149.89
  Q 139.69 148.72 141.49 150.50
  L 149.69 158.56
  A 0.96 0.90 -45.4 0 0 151.00 158.51
  L 160.06 149.31
  A 0.62 0.61 -45.0 0 0 160.07 148.44
  L 151.32 139.68
  Q 149.83 138.20 151.06 136.31
  Q 156.01 128.75 158.23 120.00
  Q 158.71 118.10 160.49 118.08
  L 172.76 117.93
  A 0.64 0.62 -0.0 0 0 173.39 117.32
  L 173.50 104.00
  A 0.76 0.43 -90.0 0 0 173.07 103.24
  Z
  M 116.64 132.04
  C 139.67 126.93 140.94 94.53 116.83 89.06
  A 1.15 1.11 -83.8 0 0 115.47 90.19
  L 115.49 131.00
  A 1.04 0.94 84.3 0 0 116.64 132.04
  Z"
/>
<path fill="#000000" d="
  M 60.39 154.37
  C 69.33 164.92 84.69 163.76 91.80 151.81
  C 95.66 145.32 97.53 139.11 97.52 131.07
  Q 97.48 95.76 97.51 60.16
  Q 97.51 58.31 99.03 57.23
  C 102.41 54.85 104.75 58.33 104.75 61.61
  Q 104.74 97.11 104.76 132.61
  C 104.76 144.89 98.03 161.08 86.47 166.24
  C 65.71 175.49 54.53 158.79 42.62 144.65
  C 40.95 142.67 38.82 141.06 40.18 138.27
  C 41.48 135.57 44.28 135.93 46.13 138.00
  Q 53.39 146.09 60.39 154.37
  Z"
/>
</svg>
