<?xml version="1.0" encoding="UTF-8" standalone="no"?>
<!DOCTYPE svg PUBLIC "-//W3C//DTD SVG 1.1//EN" "http://www.w3.org/Graphics/SVG/1.1/DTD/svg11.dtd">
<svg xmlns="http://www.w3.org/2000/svg" version="1.1" viewBox="0 0 207 223">
<path fill="#fbfbfb" d="
  M 100.15 178.12
  C 82.23 197.02 54.49 179.10 39.35 166.62
  C 26.71 156.20 25.64 140.29 27.52 125.88
  C 28.11 121.39 27.88 117.55 27.93 113.25
  Q 28.09 99.77 38.06 91.05
  A 0.83 0.76 -28.0 0 0 38.34 90.26
  Q 34.10 72.26 48.86 61.85
  A 1.14 0.87 -21.6 0 0 49.35 61.03
  C 49.44 53.51 53.55 47.92 59.88 43.70
  Q 61.58 42.57 62.65 40.88
  C 74.79 21.88 92.86 24.78 110.99 33.57
  Q 115.67 35.83 115.05 40.55
  A 0.63 0.48 -84.9 0 0 115.50 41.26
  L 122.70 41.31
  Q 125.91 41.33 125.93 44.83
  L 125.98 57.25
  A 0.81 0.72 9.1 0 0 126.56 57.96
  Q 132.36 59.70 137.67 62.59
  A 0.79 0.79 36.7 0 0 138.59 62.46
  Q 143.12 57.99 147.56 53.56
  Q 149.83 51.29 152.55 53.96
  Q 159.99 61.26 167.29 68.71
  C 171.49 72.99 161.81 80.13 159.01 82.53
  A 0.88 0.71 -35.5 0 0 158.74 83.50
  Q 161.62 89.07 163.41 95.07
  A 1.33 1.06 -9.9 0 0 164.76 95.81
  Q 170.97 95.20 177.28 95.71
  Q 179.86 95.91 179.92 98.65
  Q 180.11 108.59 179.94 118.15
  C 179.88 121.45 180.60 124.20 176.04 124.39
  Q 170.14 124.63 164.33 124.39
  A 0.85 0.56 6.3 0 0 163.52 124.80
  Q 161.83 130.93 158.75 136.50
  A 0.85 0.59 38.2 0 0 159.01 137.36
  Q 163.38 141.41 167.44 145.55
  Q 170.07 148.23 167.46 150.97
  C 164.30 154.28 153.29 167.03 149.27 167.28
  A 1.42 1.13 -20.3 0 1 148.30 166.96
  L 138.64 157.60
  A 0.81 0.53 49.4 0 0 137.84 157.37
  Q 132.54 160.28 126.77 162.04
  A 1.32 0.89 -11.6 0 0 125.83 163.00
  L 125.71 176.19
  Q 125.68 178.73 123.00 178.74
  C 117.32 178.75 105.91 179.95 100.96 177.94
  A 0.76 0.74 -57.0 0 0 100.15 178.12
  Z
  M 78.92 62.39
  C 76.14 73.34 62.04 69.95 54.74 67.72
  A 3.05 3.03 34.7 0 0 52.00 68.21
  Q 43.15 74.96 45.24 86.54
  C 45.55 88.30 46.88 92.45 45.76 93.90
  Q 44.59 95.42 46.47 95.02
  C 53.50 93.51 61.32 94.57 65.76 100.78
  A 0.56 0.55 57.4 0 0 66.48 100.94
  C 69.67 99.10 91.47 89.96 89.45 100.30
  Q 89.00 102.61 86.66 102.66
  Q 72.10 103.00 62.84 113.04
  C 58.82 117.40 55.83 124.09 53.05 129.72
  Q 51.83 132.19 49.16 131.47
  Q 45.50 130.47 46.79 126.98
  Q 51.21 115.06 59.70 105.65
  A 0.79 0.75 -37.2 0 0 59.84 104.81
  C 57.56 100.09 47.50 101.41 43.22 102.52
  A 1.55 1.01 44.1 0 1 42.20 102.32
  Q 40.56 101.37 39.95 99.56
  Q 39.74 98.94 39.30 99.65
  Q 34.28 107.79 35.13 117.16
  Q 35.47 120.88 35.21 123.37
  C 34.01 134.59 32.48 150.07 41.47 158.73
  C 54.15 170.95 83.56 190.78 98.29 169.78
  C 104.57 160.83 108.50 150.44 108.19 139.42
  C 107.33 108.90 108.67 73.66 108.07 40.42
  A 0.89 0.87 14.8 0 0 107.63 39.68
  C 93.80 31.82 75.41 29.67 67.64 46.78
  Q 67.43 47.25 67.02 47.54
  C 62.41 50.84 58.08 53.03 56.51 58.97
  A 1.67 1.64 18.0 0 0 57.52 60.91
  Q 63.80 63.39 70.51 62.61
  A 1.66 1.53 -4.9 0 0 71.98 61.00
  L 71.73 55.75
  A 2.04 1.71 62.5 0 1 71.96 54.71
  Q 74.18 50.76 78.00 53.50
  A 1.84 1.03 86.1 0 1 78.56 54.36
  Q 79.91 58.48 78.92 62.39
  Z
  M 120.21 156.36
  Q 129.08 154.11 137.00 149.49
  Q 139.21 148.20 141.26 150.25
  L 149.38 158.37
  A 0.48 0.48 0.0 0 0 150.09 158.34
  L 159.71 148.71
  A 0.65 0.58 45.0 0 0 159.66 147.84
  L 150.54 138.71
  A 1.89 1.87 -51.1 0 1 150.30 136.36
  Q 155.21 128.79 157.59 120.07
  Q 158.28 117.55 161.01 117.54
  L 172.50 117.51
  A 0.75 0.64 89.6 0 0 173.14 116.75
  L 173.03 103.25
  A 0.54 0.54 0.5 0 0 172.50 102.71
  L 159.25 102.56
  A 0.88 0.80 74.4 0 1 158.52 102.10
  C 156.96 99.27 156.25 95.50 155.31 93.24
  Q 153.20 88.19 150.65 84.00
  Q 149.51 82.13 151.08 80.58
  L 159.74 71.99
  A 0.52 0.52 45.5 0 0 159.74 71.25
  L 149.99 61.51
  A 0.51 0.36 -45.5 0 0 149.37 61.62
  L 140.87 70.14
  Q 139.22 71.80 137.17 70.59
  Q 129.21 65.89 120.30 63.51
  A 2.11 2.06 7.7 0 1 118.74 61.51
  L 118.75 49.25
  A 0.81 0.71 -83.0 0 0 118.24 48.49
  Q 116.89 48.09 115.51 48.55
  A 0.75 0.74 -9.4 0 0 115.00 49.25
  L 115.00 80.50
  A 0.71 0.65 4.6 0 0 115.61 81.15
  C 149.29 86.33 150.22 132.87 115.49 138.92
  A 0.60 0.60 84.8 0 0 115.00 139.51
  C 114.97 142.85 115.23 146.05 114.48 149.27
  Q 111.93 160.34 106.74 170.52
  A 0.69 0.63 -74.9 0 0 107.25 171.51
  L 117.99 171.72
  A 0.73 0.70 0.0 0 0 118.73 171.01
  L 118.65 158.75
  Q 118.64 156.76 120.21 156.36
  Z
  M 125.28 92.73
  Q 121.02 89.25 115.54 88.62
  A 0.49 0.39 3.8 0 0 115.00 89.00
  L 115.00 131.00
  A 0.53 0.50 -5.7 0 0 115.63 131.49
  C 134.89 127.89 140.34 105.03 125.28 92.73
  Z"
/>
<path fill="#fbfbfb" d="
  M 104.20 97.00
  C 104.05 108.67 104.37 121.82 104.20 134.25
  C 104.09 142.17 99.04 154.82 93.11 160.78
  C 82.68 171.27 64.68 170.21 55.29 159.45
  Q 47.84 150.91 40.10 141.91
  Q 37.98 139.45 39.99 136.90
  C 41.66 134.78 44.37 135.99 45.96 137.81
  Q 51.66 144.32 57.30 150.87
  Q 62.54 156.95 65.52 158.70
  C 74.23 163.81 85.84 160.40 90.94 151.94
  C 94.40 146.20 97.03 139.65 97.02 132.59
  Q 96.97 96.07 97.02 59.44
  Q 97.02 56.88 99.52 56.34
  Q 104.42 55.26 104.43 61.01
  Q 104.43 79.00 104.20 97.00
  Z"
/>
</svg>
